<svg width="16" height="16" viewBox="0 0 16 16" fill="none" xmlns="http://www.w3.org/2000/svg">
<path fill-rule="evenodd" clip-rule="evenodd" d="M7.39676 0.393048L7.31264 0.465659L0.11718 7.65994C-0.038641 7.81574 -0.0391216 8.06821 0.116106 8.2246L7.36178 15.5244C7.65358 15.8184 8.12845 15.8201 8.42243 15.5283C8.68968 15.2631 8.71544 14.8465 8.49868 14.5521L8.42638 14.4677L2.91819 8.91647C2.87929 8.87726 2.87954 8.81395 2.91874 8.77505C2.93747 8.75646 2.96279 8.74603 2.98918 8.74603L15.25 8.74603C15.6642 8.74603 16 8.41025 16 7.99603C16 7.58182 15.6642 7.24603 15.25 7.24603L2.89451 7.24603C2.83928 7.24603 2.79451 7.20126 2.79451 7.14603C2.79451 7.11951 2.80505 7.09407 2.8238 7.07532L8.37321 1.52641C8.6395 1.26016 8.66374 0.8435 8.44591 0.549871L8.3733 0.465746C8.10705 0.199458 7.69039 0.175217 7.39676 0.393048Z" fill="#E21B70"/>
</svg>
