<svg width="18" height="20" viewBox="0 0 18 20" fill="none" xmlns="http://www.w3.org/2000/svg">
<path fill-rule="evenodd" clip-rule="evenodd" d="M8.84712 0.996033C11.3868 0.996033 13.4609 2.98911 13.5907 5.49645L16.6941 5.49603C17.2464 5.49603 17.6941 5.94375 17.6941 6.49603C17.6941 6.54335 17.6907 6.59061 17.6841 6.63745L15.9698 18.6375C15.8994 19.1301 15.4775 19.496 14.9798 19.496H2.71441C2.21676 19.496 1.79484 19.1301 1.72446 18.6375L0.0101779 6.63745C-0.067927 6.09072 0.311972 5.58419 0.858706 5.50608C0.905549 5.49939 0.952809 5.49603 1.00013 5.49603L4.10356 5.49645C4.23336 2.98911 6.30748 0.996033 8.84712 0.996033ZM14.4057 15.746H3.28734C3.06643 15.746 2.88734 15.9251 2.88734 16.146C2.88734 16.165 2.88869 16.1839 2.89138 16.2027L3.09897 17.6527C3.12717 17.8497 3.29592 17.996 3.49493 17.996H14.1983C14.3973 17.996 14.5661 17.8497 14.5942 17.6527L14.8017 16.2027C14.833 15.984 14.681 15.7814 14.4623 15.7501C14.4436 15.7474 14.4247 15.746 14.4057 15.746ZM15.6559 6.99603H2.03733C1.81642 6.99603 1.63733 7.17512 1.63733 7.39603C1.63733 7.41496 1.63868 7.43387 1.64135 7.45261L2.56293 13.9026C2.59109 14.0997 2.75985 14.246 2.95891 14.246H14.7341C14.9332 14.246 15.1019 14.0997 15.1301 13.9026L16.0519 7.45262C16.0831 7.23393 15.9312 7.03131 15.7125 7.00006C15.6937 6.99738 15.6748 6.99603 15.6559 6.99603ZM8.84712 2.49603C7.26133 2.49603 5.94081 3.63178 5.65462 5.13423C5.62309 5.29975 5.73171 5.45949 5.89723 5.49102C5.91605 5.4946 5.93516 5.49641 5.95432 5.49638H11.7502C11.914 5.49634 12.0468 5.36358 12.0468 5.1998C12.0468 5.18153 12.0451 5.1633 12.0417 5.14533C11.7599 3.63738 10.4368 2.49603 8.84712 2.49603Z" fill="#E21B70"/>
</svg>
