<svg width="19" height="20" viewBox="0 0 19 20" fill="none" xmlns="http://www.w3.org/2000/svg">
<path fill-rule="evenodd" clip-rule="evenodd" d="M5.931 12.4961C7.506 12.4961 8.836 13.5636 9.2375 15.0126C9.272 15.1371 9.38 15.2271 9.51 15.2271H17.7C18.087 15.2271 18.4 15.5406 18.4 15.9271C18.4 16.3141 18.087 16.6276 17.7 16.6276H9.51C9.38 16.6276 9.272 16.7176 9.2375 16.8421C8.836 18.2911 7.506 19.3581 5.931 19.3581C4.356 19.3581 3.026 18.2911 2.6245 16.8421C2.59 16.7176 2.482 16.6276 2.352 16.6276H0.7C0.3135 16.6276 0 16.3141 0 15.9271C0 15.5406 0.3135 15.2271 0.7 15.2271H2.352C2.482 15.2271 2.59 15.1371 2.6245 15.0126C3.026 13.5636 4.356 12.4961 5.931 12.4961ZM5.931 13.8966C4.811 13.8966 3.9 14.8071 3.9 15.9271C3.9 17.0471 4.811 17.9576 5.931 17.9576C7.0505 17.9576 7.962 17.0471 7.962 15.9271C7.962 14.8071 7.0505 13.8966 5.931 13.8966ZM12.4693 6.74609C14.0443 6.74609 15.3743 7.81359 15.7758 9.26259C15.8103 9.38709 15.9183 9.47709 16.0483 9.47709H17.6998C18.0868 9.47709 18.3998 9.79059 18.3998 10.1771C18.3998 10.5641 18.0868 10.8776 17.6998 10.8776H16.0483C15.9183 10.8776 15.8103 10.9676 15.7758 11.0921C15.3743 12.5411 14.0443 13.6081 12.4693 13.6081C10.8943 13.6081 9.5643 12.5411 9.1628 11.0921C9.1283 10.9676 9.0203 10.8776 8.8903 10.8776H0.6998C0.3133 10.8776 0.000299931 10.5641 0.000299931 10.1771C0.000299931 9.79059 0.3133 9.47709 0.6998 9.47709H8.8903C9.0203 9.47709 9.1283 9.38709 9.1628 9.26259C9.5643 7.81359 10.8943 6.74609 12.4693 6.74609ZM12.4693 8.14659C11.3493 8.14659 10.4383 9.05709 10.4383 10.1771C10.4383 11.2971 11.3493 12.2076 12.4693 12.2076C13.5888 12.2076 14.5003 11.2971 14.5003 10.1771C14.5003 9.05709 13.5888 8.14659 12.4693 8.14659ZM5.931 0.996094C7.506 0.996094 8.836 2.06359 9.2375 3.51259C9.272 3.63709 9.38 3.72709 9.51 3.72709H17.7C18.087 3.72709 18.4 4.04059 18.4 4.42759C18.4 4.81409 18.087 5.12759 17.7 5.12759H9.51C9.38 5.12759 9.272 5.21759 9.2375 5.34209C8.836 6.79109 7.506 7.85809 5.931 7.85809C4.356 7.85809 3.026 6.79109 2.6245 5.34209C2.59 5.21759 2.482 5.12759 2.352 5.12759H0.7C0.3135 5.12759 0 4.81409 0 4.42759C0 4.04059 0.3135 3.72709 0.7 3.72709H2.352C2.482 3.72709 2.59 3.63709 2.6245 3.51259C3.026 2.06359 4.356 0.996094 5.931 0.996094ZM5.931 2.39659C4.811 2.39659 3.9 3.30709 3.9 4.42759C3.9 5.54709 4.811 6.45759 5.931 6.45759C7.0505 6.45759 7.962 5.54709 7.962 4.42759C7.962 3.30709 7.0505 2.39659 5.931 2.39659Z" fill="#FF2B85"/>
</svg>
