<svg width="20" height="17" viewBox="0 0 20 17" fill="none" xmlns="http://www.w3.org/2000/svg">
<path fill-rule="evenodd" clip-rule="evenodd" d="M15.9384 1.43437C18.7016 2.74964 19.9527 6.19072 18.7327 9.12024C17.1851 12.3634 14.297 14.9555 10.0683 16.8965C9.81413 17.0103 9.52502 17.0265 9.26089 16.9451L9.13065 16.8961C4.90256 14.9551 2.01479 12.3632 0.467349 9.12024C-0.752694 6.19072 0.498354 2.74964 3.26164 1.43437C5.15196 0.534619 7.08845 1.11922 8.64023 2.28889C8.75184 2.37301 8.88609 2.48391 9.043 2.62157L9.32929 2.87928C9.48226 3.02 9.71753 3.0201 9.87063 2.87952L10.1865 2.59641C10.331 2.47054 10.4556 2.36821 10.5603 2.28941C12.1155 1.11805 14.0499 0.535527 15.9384 1.43437ZM15.2937 2.78877C14.1158 2.22811 12.7884 2.48904 11.4627 3.48757L11.3118 3.60796C11.1969 3.70361 11.0536 3.82971 10.8852 3.98436C10.6777 4.17487 10.3315 4.45117 9.84662 4.81327L9.84666 4.81333C9.70177 4.92152 9.50231 4.91907 9.36012 4.80735C8.9453 4.4814 8.64234 4.24534 8.45126 4.09916L8.3202 3.98911L8.16281 3.84597C7.98181 3.68346 7.83781 3.56245 7.73735 3.48672C6.41396 2.48921 5.08497 2.22775 3.90631 2.78877C1.8754 3.75544 0.935105 6.34179 1.82112 8.47426C3.15605 11.2718 5.64259 13.5608 9.34057 15.3375L9.6 15.459L9.85853 15.338C13.42 13.627 15.8569 11.4432 17.1981 8.84517L17.3479 8.54356C18.2362 6.4106 17.3816 3.91671 15.4809 2.88408L15.2937 2.78877Z" fill="#E21B70"/>
</svg>
