<svg width="20" height="21" viewBox="0 0 20 21" fill="none" xmlns="http://www.w3.org/2000/svg">
<path fill-rule="evenodd" clip-rule="evenodd" d="M8.5 0.996094C13.1944 0.996094 17 4.80167 17 9.49609C17 11.4037 16.3716 13.1645 15.3106 14.5828C15.2902 14.6101 15.2661 14.6416 15.2383 14.6772C15.1139 14.8364 15.1279 15.0634 15.2708 15.2063L18.8386 18.7708C19.1316 19.0636 19.1318 19.5385 18.839 19.8315C18.5728 20.0979 18.1562 20.1222 17.8625 19.9045L17.7783 19.8319L14.2103 16.2666C14.0675 16.124 13.8408 16.1101 13.6817 16.2342C13.655 16.2549 13.6311 16.2733 13.6099 16.2893C12.1876 17.3609 10.418 17.9961 8.5 17.9961C3.80558 17.9961 0 14.1905 0 9.49609C0 4.80167 3.80558 0.996094 8.5 0.996094ZM8.5 2.49609C4.63401 2.49609 1.5 5.6301 1.5 9.49609C1.5 13.3621 4.63401 16.4961 8.5 16.4961C12.366 16.4961 15.5 13.3621 15.5 9.49609C15.5 5.6301 12.366 2.49609 8.5 2.49609Z" fill="#FF2B85"/>
</svg>
