<svg width="20" height="22" viewBox="0 0 20 22" fill="none" xmlns="http://www.w3.org/2000/svg">
<path d="M16.89 12.77L13.09 11.1C12.96 11.04 12.81 11 12.65 11H12V6.5C12 5.83696 11.7366 5.20107 11.2678 4.73223C10.7989 4.26339 10.163 4 9.5 4C8.83696 4 8.20107 4.26339 7.73223 4.73223C7.26339 5.20107 7 5.83696 7 6.5V14.65L5.13 14.25C4.94 14.22 4.11 14.1 3.4 14.81L2 16.22L7.12 21.41C7.49 21.79 8 22 8.53 22H15.08C16.06 22 16.89 21.3 17.05 20.33L17.97 14.89C18.0407 14.4676 17.974 14.0336 17.7795 13.6519C17.5851 13.2703 17.2733 12.9611 16.89 12.77V12.77ZM15.08 20H8.53L4.83 16.22L9 17.11V6.5C9 6.22 9.22 6 9.5 6C9.78 6 10 6.22 10 6.5V12.68H11.76L16 14.56L15.08 20ZM10 1.5C5.26 1.5 2.33 4.02 1.57 6H0C0.73 3.12 4.51 0 10 0C13.22 0 16.18 1.13 18.5 3.02V1H20V6H15V4.5H17.91C15.79 2.64 13.03 1.5 10 1.5Z" fill="#E21B70"/>
</svg>
