<svg width="18" height="19" viewBox="0 0 18 19" fill="none" xmlns="http://www.w3.org/2000/svg">
<path fill-rule="evenodd" clip-rule="evenodd" d="M8.84718 0.336029C11.3868 0.336029 13.4609 2.32911 13.5907 4.83645L16.6942 4.83603C17.2465 4.83603 17.6942 5.28374 17.6942 5.83603C17.6942 5.88335 17.6908 5.93061 17.6841 5.97745L15.9698 17.9775C15.8995 18.4701 15.4775 18.836 14.9799 18.836H2.71447C2.21682 18.836 1.7949 18.4701 1.72452 17.9775L0.0102389 5.97745C-0.0678659 5.43072 0.312033 4.92418 0.858767 4.84608C0.90561 4.83939 0.95287 4.83603 1.00019 4.83603L4.10362 4.83645C4.23342 2.32911 6.30754 0.336029 8.84718 0.336029ZM14.4058 15.086H3.2874C3.06649 15.086 2.8874 15.2651 2.8874 15.486C2.8874 15.505 2.88875 15.5239 2.89144 15.5427L3.09903 16.9927C3.12723 17.1897 3.29598 17.336 3.49499 17.336H14.1983C14.3974 17.336 14.5661 17.1897 14.5943 16.9927L14.8017 15.5427C14.833 15.324 14.6811 15.1213 14.4624 15.0901C14.4436 15.0874 14.4247 15.086 14.4058 15.086ZM15.6559 6.33603H2.03739C1.81648 6.33603 1.63739 6.51511 1.63739 6.73603C1.63739 6.75496 1.63874 6.77387 1.64141 6.79261L2.56299 13.2426C2.59115 13.4397 2.75991 13.586 2.95897 13.586H14.7342C14.9332 13.586 15.102 13.4397 15.1301 13.2426L16.0519 6.79262C16.0832 6.57393 15.9312 6.37131 15.7125 6.34005C15.6938 6.33737 15.6749 6.33603 15.6559 6.33603ZM8.84718 1.83603C7.26139 1.83603 5.94087 2.97178 5.65468 4.47422C5.62315 4.63974 5.73177 4.79948 5.89729 4.83101C5.91611 4.8346 5.93522 4.8364 5.95438 4.83638H11.7503C11.9141 4.83634 12.0468 4.70357 12.0468 4.5398C12.0468 4.52153 12.0451 4.50329 12.0418 4.48533C11.76 2.97738 10.4369 1.83603 8.84718 1.83603Z" fill="white"/>
</svg>
