<svg width="18" height="14" viewBox="0 0 18 14" fill="none" xmlns="http://www.w3.org/2000/svg">
<path fill-rule="evenodd" clip-rule="evenodd" d="M16.75 12.336C17.1642 12.336 17.5 12.6718 17.5 13.086C17.5 13.4657 17.2178 13.7795 16.8518 13.8292L16.75 13.836H0.75C0.335786 13.836 0 13.5002 0 13.086C0 12.7063 0.282154 12.3925 0.648229 12.3429L0.75 12.336H16.75ZM16.75 6.33603C17.1642 6.33603 17.5 6.67182 17.5 7.08603C17.5 7.46572 17.2178 7.77952 16.8518 7.82918L16.75 7.83603H0.75C0.335786 7.83603 0 7.50024 0 7.08603C0 6.70633 0.282154 6.39254 0.648229 6.34288L0.75 6.33603H16.75ZM16.75 0.336029C17.1642 0.336029 17.5 0.671815 17.5 1.08603C17.5 1.46572 17.2178 1.77952 16.8518 1.82918L16.75 1.83603H0.75C0.335786 1.83603 0 1.50024 0 1.08603C0 0.706333 0.282154 0.392538 0.648229 0.342875L0.75 0.336029H16.75Z" fill="white"/>
</svg>
