<svg width="20" height="20" viewBox="0 0 20 20" fill="none" xmlns="http://www.w3.org/2000/svg">
<path fill-rule="evenodd" clip-rule="evenodd" d="M8.5 0.336029C13.1944 0.336029 17 4.14161 17 8.83603C17 10.7436 16.3716 12.5044 15.3106 13.9227C15.2902 13.95 15.2661 13.9815 15.2383 14.0171C15.1139 14.1764 15.1279 14.4034 15.2708 14.5462L18.8386 18.1108C19.1316 18.4036 19.1318 18.8784 18.839 19.1714C18.5728 19.4378 18.1562 19.4622 17.8625 19.2444L17.7783 19.1718L14.2103 15.6066C14.0675 15.4639 13.8408 15.45 13.6817 15.5741C13.655 15.5948 13.6311 15.6132 13.6099 15.6292C12.1876 16.7008 10.418 17.336 8.5 17.336C3.80558 17.336 0 13.5304 0 8.83603C0 4.14161 3.80558 0.336029 8.5 0.336029ZM8.5 1.83603C4.63401 1.83603 1.5 4.97004 1.5 8.83603C1.5 12.702 4.63401 15.836 8.5 15.836C12.366 15.836 15.5 12.702 15.5 8.83603C15.5 4.97004 12.366 1.83603 8.5 1.83603Z" fill="#707070"/>
</svg>
