<svg width="20" height="17" viewBox="0 0 20 17" fill="none" xmlns="http://www.w3.org/2000/svg">
<path fill-rule="evenodd" clip-rule="evenodd" d="M15.9384 0.774367C18.7016 2.08964 19.9527 5.53072 18.7327 8.46024C17.1851 11.7034 14.297 14.2955 10.0683 16.2365C9.81413 16.3503 9.52502 16.3665 9.26089 16.2851L9.13065 16.2361C4.90256 14.2951 2.01479 11.7032 0.467349 8.46024C-0.752694 5.53072 0.498354 2.08964 3.26164 0.774367C5.15196 -0.125385 7.08845 0.459221 8.64023 1.62888C8.75184 1.71301 8.88609 1.8239 9.043 1.96157L9.32929 2.21927C9.48226 2.36 9.71753 2.3601 9.87063 2.21951L10.1865 1.93641C10.331 1.81054 10.4556 1.70821 10.5603 1.62941C12.1155 0.458042 14.0499 -0.124476 15.9384 0.774367ZM15.2937 2.12877C14.1158 1.5681 12.7884 1.82904 11.4627 2.82757L11.3118 2.94796C11.1969 3.0436 11.0536 3.1697 10.8852 3.32436C10.6777 3.51487 10.3315 3.79117 9.84662 4.15327L9.84666 4.15332C9.70177 4.26152 9.50231 4.25907 9.36012 4.14734C8.9453 3.8214 8.64234 3.58534 8.45126 3.43916L8.3202 3.32911L8.16281 3.18597C7.98181 3.02346 7.83781 2.90244 7.73735 2.82672C6.41396 1.82921 5.08497 1.56775 3.90631 2.12877C1.8754 3.09544 0.935105 5.68179 1.82112 7.81425C3.15605 10.6118 5.64259 12.9008 9.34057 14.6775L9.6 14.799L9.85853 14.678C13.42 12.967 15.8569 10.7832 17.1981 8.18516L17.3479 7.88355C18.2362 5.75059 17.3816 3.25671 15.4809 2.22408L15.2937 2.12877Z" fill="white"/>
</svg>
