<svg width="34" height="34" viewBox="0 0 34 34" fill="none" xmlns="http://www.w3.org/2000/svg">
<g filter="url(#filter0_d_1083_3360)">
<rect x="5" y="4" width="24" height="24" rx="12" fill="white"/>
<path fill-rule="evenodd" clip-rule="evenodd" d="M21.6217 10.3288C23.6366 11.3152 24.5488 13.896 23.6592 16.0932C22.5308 18.5256 20.4249 20.4696 17.3415 21.9254C17.1561 22.0107 16.9453 22.0229 16.7527 21.9618L16.6578 21.925C13.5748 20.4693 11.4691 18.5254 10.3408 16.0932C9.45116 13.896 10.3634 11.3152 12.3783 10.3288C13.8368 9.61468 15.3331 10.1472 16.4947 11.1271C16.5581 11.1805 16.6361 11.2511 16.7289 11.3387L16.7289 11.3387C16.882 11.4834 17.1173 11.4834 17.2703 11.3386C17.3418 11.271 17.4028 11.2154 17.4531 11.172C18.6253 10.1622 20.1429 9.60474 21.6217 10.3288ZM20.8696 11.954C20.1697 11.6114 19.2881 11.8672 18.4185 12.694L18.2449 12.867L17.2833 13.8682C17.128 14.0299 16.8747 14.0315 16.7176 13.8718C16.7163 13.8705 16.715 13.8692 16.7138 13.8679L15.7534 12.8654C14.8329 11.9047 13.8778 11.5881 13.1304 11.954C11.9699 12.5222 11.4203 14.0773 11.9202 15.318C12.7645 17.1379 14.3041 18.6633 16.596 19.891L16.8207 20.0071C16.9333 20.0652 17.0658 20.0655 17.1786 20.0077C17.3059 19.9425 17.4046 19.891 17.4746 19.853C19.6006 18.7014 21.0681 17.2962 21.9017 15.6899L22.0437 15.4011C22.5554 14.1375 22.0778 12.6631 21.024 12.0375L20.8696 11.954Z" fill="#333333"/>
</g>
<defs>
<filter id="filter0_d_1083_3360" x="0" y="0" width="34" height="34" filterUnits="userSpaceOnUse" color-interpolation-filters="sRGB">
<feFlood flood-opacity="0" result="BackgroundImageFix"/>
<feColorMatrix in="SourceAlpha" type="matrix" values="0 0 0 0 0 0 0 0 0 0 0 0 0 0 0 0 0 0 127 0" result="hardAlpha"/>
<feOffset dy="1"/>
<feGaussianBlur stdDeviation="2.5"/>
<feColorMatrix type="matrix" values="0 0 0 0 0 0 0 0 0 0 0 0 0 0 0 0 0 0 0.15 0"/>
<feBlend mode="normal" in2="BackgroundImageFix" result="effect1_dropShadow_1083_3360"/>
<feBlend mode="normal" in="SourceGraphic" in2="effect1_dropShadow_1083_3360" result="shape"/>
</filter>
</defs>
</svg>
