<svg width="13" height="14" viewBox="0 0 13 14" fill="none" xmlns="http://www.w3.org/2000/svg">
<path fill-rule="evenodd" clip-rule="evenodd" d="M12.594 1.21558C12.8625 1.48407 12.8849 1.90547 12.6612 2.19944L12.594 2.27624L7.75036 7.11992C7.59415 7.27613 7.59415 7.5294 7.75036 7.68561L12.594 12.5293C12.8869 12.8222 12.8869 13.2971 12.594 13.5899C12.3256 13.8584 11.9042 13.8808 11.6102 13.6571L11.5334 13.5899L6.6897 8.74627C6.53349 8.59006 6.28022 8.59006 6.12401 8.74627L1.28033 13.5899C0.987437 13.8828 0.512563 13.8828 0.21967 13.5899C-0.0488155 13.3215 -0.0711894 12.9001 0.152548 12.6061L0.21967 12.5293L5.06335 7.68561C5.21956 7.5294 5.21956 7.27613 5.06335 7.11992L0.21967 2.27624C-0.0732232 1.98335 -0.0732232 1.50847 0.21967 1.21558C0.488155 0.947095 0.909555 0.924721 1.20353 1.14846L1.28033 1.21558L6.12401 6.05926C6.28022 6.21547 6.53349 6.21547 6.6897 6.05926L11.5334 1.21558C11.8263 0.922687 12.3011 0.922687 12.594 1.21558Z" fill="#E21B70"/>
</svg>
