<svg width="23" height="17" viewBox="0 0 23 17" fill="none" xmlns="http://www.w3.org/2000/svg">
<path fill-rule="evenodd" clip-rule="evenodd" d="M9.76495 1.51323L9.85917 1.58418L10.0749 1.75745C10.1139 1.78982 10.1544 1.82392 10.1964 1.85977L10.503 2.12822C10.6669 2.2748 10.9189 2.27491 11.0829 2.12847L11.4212 1.83356C11.5761 1.70245 11.7095 1.59586 11.8216 1.51378C13.3641 0.38398 15.2548 -0.219934 17.1322 0.440072C17.1444 0.444357 17.158 0.449242 17.1729 0.454726C17.2198 0.472026 17.2434 0.522997 17.2257 0.568616C17.217 0.590938 17.1994 0.608892 17.1769 0.61839C16.6633 0.841887 16.1925 1.14174 15.7798 1.50311C15.7461 1.53258 15.7033 1.57179 15.6512 1.62073L15.6513 1.6208C15.5762 1.69142 15.4771 1.73292 15.3727 1.7375C15.2752 1.74179 15.1969 1.74727 15.1379 1.75395C14.373 1.84054 13.5804 2.18167 12.7883 2.76186L12.6266 2.88726L12.4196 3.06025L12.1696 3.27935C12.1141 3.32896 12.0492 3.38416 11.9751 3.44494L11.7248 3.64404L11.4189 3.87666L11.0572 4.14285C10.902 4.25556 10.6884 4.253 10.5361 4.13662L9.56254 3.39893L9.42216 3.2843L9.14206 3.03884L8.94891 2.87802L8.79784 2.76097C7.3803 1.7219 5.95676 1.44955 4.69424 2.03394C2.51884 3.04089 1.51164 5.735 2.4607 7.95632C3.8906 10.8705 6.55405 13.2548 10.5151 15.1056L10.793 15.2321L11.0699 15.106C13.8028 13.8293 15.9175 12.2998 17.4253 10.5399C17.4363 10.5272 17.4485 10.5128 17.4619 10.4969L17.4619 10.4969C17.5591 10.3819 17.7174 10.3343 17.8643 10.3761C18.3019 10.5005 18.7635 10.5715 19.2406 10.5819C19.2875 10.5829 19.3247 10.6207 19.3236 10.6663C19.3232 10.6829 19.3177 10.699 19.3078 10.7125C19.2582 10.7799 19.2178 10.8341 19.1867 10.8751C17.402 13.2262 14.7713 15.1776 11.2947 16.7295C11.0224 16.8481 10.7127 16.8649 10.4298 16.7801L10.2903 16.729C5.76137 14.7072 2.66815 12.0073 1.01061 8.62922C-0.296235 5.57764 1.04382 1.99318 4.0037 0.623106C6.02851 -0.314135 8.10277 0.294829 9.76495 1.51323ZM19.3622 2.24984C21.1369 2.24984 22.5756 3.64895 22.5756 5.37484C22.5756 7.10073 21.1369 8.49984 19.3622 8.49984C17.5875 8.49984 16.1487 7.10073 16.1487 5.37484C16.1487 3.64895 17.5875 2.24984 19.3622 2.24984Z" fill="#E21B70"/>
</svg>
