<svg width="16" height="16" viewBox="0 0 16 16" fill="none" xmlns="http://www.w3.org/2000/svg">
<path fill-rule="evenodd" clip-rule="evenodd" d="M7.39676 0.146893L7.31264 0.219504L0.11718 7.41379C-0.038641 7.56958 -0.0391216 7.82206 0.116106 7.97844L7.36178 15.2782C7.65358 15.5722 8.12845 15.574 8.42243 15.2822C8.68968 15.0169 8.71544 14.6003 8.49868 14.3059L8.42638 14.2215L2.91819 8.67031C2.87929 8.63111 2.87954 8.56779 2.91874 8.52889C2.93747 8.51031 2.96279 8.49988 2.98918 8.49988L15.25 8.49988C15.6642 8.49988 16 8.16409 16 7.74988C16 7.33566 15.6642 6.99988 15.25 6.99988L2.89451 6.99988C2.83928 6.99988 2.79451 6.95511 2.79451 6.89988C2.79451 6.87335 2.80505 6.84792 2.8238 6.82916L8.37321 1.28025C8.6395 1.01401 8.66374 0.597345 8.44591 0.303716L8.3733 0.219591C8.10705 -0.046697 7.69039 -0.0709373 7.39676 0.146893Z" fill="#D70F64"/>
</svg>
