<svg width="18" height="20" viewBox="0 0 18 20" fill="none" xmlns="http://www.w3.org/2000/svg">
<path fill-rule="evenodd" clip-rule="evenodd" d="M8.84712 0.996094C11.3868 0.996094 13.4609 2.98918 13.5907 5.49651L16.6941 5.49609C17.2464 5.49609 17.6941 5.94381 17.6941 6.49609C17.6941 6.54341 17.6907 6.59067 17.6841 6.63752L15.9698 18.6375C15.8994 19.1302 15.4775 19.4961 14.9798 19.4961H2.71441C2.21676 19.4961 1.79484 19.1302 1.72446 18.6375L0.0101779 6.63752C-0.067927 6.09078 0.311972 5.58425 0.858706 5.50614C0.905549 5.49945 0.952809 5.49609 1.00013 5.49609L4.10356 5.49651C4.23336 2.98918 6.30748 0.996094 8.84712 0.996094ZM14.4057 15.7461H3.28734C3.06643 15.7461 2.88734 15.9252 2.88734 16.1461C2.88734 16.1651 2.88869 16.184 2.89138 16.2028L3.09897 17.6528C3.12717 17.8498 3.29592 17.9961 3.49493 17.9961H14.1983C14.3973 17.9961 14.5661 17.8498 14.5942 17.6527L14.8017 16.2027C14.833 15.9841 14.681 15.7814 14.4623 15.7501C14.4436 15.7474 14.4247 15.7461 14.4057 15.7461ZM15.6559 6.99609H2.03733C1.81642 6.99609 1.63733 7.17518 1.63733 7.39609C1.63733 7.41502 1.63868 7.43393 1.64135 7.45267L2.56293 13.9027C2.59109 14.0997 2.75985 14.2461 2.95891 14.2461H14.7341C14.9332 14.2461 15.1019 14.0997 15.1301 13.9027L16.0519 7.45268C16.0831 7.23399 15.9312 7.03137 15.7125 7.00012C15.6937 6.99744 15.6748 6.99609 15.6559 6.99609ZM8.84712 2.49609C7.26133 2.49609 5.94081 3.63184 5.65462 5.13429C5.62309 5.29981 5.73171 5.45955 5.89723 5.49108C5.91605 5.49466 5.93516 5.49647 5.95432 5.49644H11.7502C11.914 5.4964 12.0468 5.36364 12.0468 5.19986C12.0468 5.18159 12.0451 5.16336 12.0417 5.14539C11.7599 3.63744 10.4368 2.49609 8.84712 2.49609Z" fill="#D70F64"/>
</svg>
